#!OML:ASF X:\für Bonn\!DataBase\2005_08_11_Bastian_Final\c3d\Bastian.ASF
:FULLY-SPECIFIED
:DEGREES
217
root 16.658 17.7229 -6.29497 30.729 110.362 -683.875
lowerback 2.66757 1.9533 5.67349
upperback 5.12486 2.76033 1.20407
thorax 4.01572 1.64413 -1.88991
lowerneck -10.8647 0.270811 -4.70134
upperneck 3.78106 0.86764 2.43963
head 3.12807 0.460012 1.69501
rclavicle -1.55052e-014 -1.90833e-014
rhumerus -43.1047 20.5778 -96.0783
rradius 97.4697
rwrist 8.68094
rhand -23.4933 19.5951
rfingers 7.12502
rthumb 2.9667 -10.364
lclavicle -1.55052e-014 -1.90833e-014
lhumerus -61.3974 -20.8254 92.1069
lradius 69.5941
lwrist 26.9231
lhand -10.9651 -9.79321
lfingers 7.12502
lthumb 15.0541 19.6394
rfemur 16.0149 -7.52255 24.103
rtibia 37.1536
rfoot 10.3002 0.299093
rtoes -37.0585
lfemur -27.6669 7.40014 -21.5542
ltibia 30.4567
lfoot -17.6015 -7.35398
ltoes -10.9568
218
root 16.9429 17.6809 -6.35348 29.4183 110.949 -685.06
lowerback 2.4887 1.95813 5.57837
upperback 5.12778 2.75379 1.17318
thorax 4.11553 1.63954 -1.86142
lowerneck -10.7631 0.130662 -4.80783
upperneck 3.85601 0.67769 2.6026
head 3.14351 0.368802 1.75765
rclavicle -4.09496e-014 1.90833e-014
rhumerus -43.052 20.2078 -95.8669
rradius 97.0867
rwrist 8.48217
rhand -23.5798 19.4393
rfingers 7.12502
rthumb 2.88318 -10.521
lclavicle -4.09496e-014 1.90833e-014
lhumerus -61.0529 -20.597 91.8415
lradius 69.676
lwrist 26.5778
lhand -10.7694 -10.0556
lfingers 7.12502
lthumb 15.2426 19.3629
rfemur 15.6902 -7.97322 23.7503
rtibia 39.2683
rfoot 11.482 1.10635
rtoes -36.5605
lfemur -26.9543 7.41615 -21.8777
ltibia 29.3185
lfoot -18.418 -7.42918
ltoes -12.718
219
root 17.2225 17.6262 -6.41367 28.035 111.515 -686.288
lowerback 2.38266 1.94565 5.46976
upperback 5.14263 2.73072 1.11778
thorax 4.186 1.62666 -1.85391
lowerneck -10.7374 0.00650444 -4.8812
upperneck 3.97901 0.5091 2.74167
head 3.18959 0.287662 1.8093
rclavicle 5.68524e-014 5.56597e-015
rhumerus -43.0066 19.8156 -95.6461
rradius 96.5308
rwrist 8.35095
rhand -23.765 19.4254
rfingers 7.12502
rthumb 2.70432 -10.5372
lclavicle 5.68524e-014 5.56597e-015
lhumerus -60.614 -20.4271 91.6289
lradius 69.7227
lwrist 26.3175
lhand -10.6919 -10.1486
lfingers 7.12502
lthumb 15.3173 19.2642
rfemur 15.2373 -8.41317 23.3088
rtibia 41.5543
rfoot 12.4474 1.87557
rtoes -35.7781
lfemur -26.2246 7.32895 -22.2036
ltibia 28.4712
lfoot -18.9588 -7.49754
ltoes -14.1792
220
root 17.4997 17.5624 -6.47427 26.8299 112.104 -687.318
lowerback 2.3087 1.93628 5.39968
upperback 5.16421 2.71459 1.08299
thorax 4.24709 1.6187 -1.8475
lowerneck -10.7672 -0.127137 -4.92961
upperneck 4.08137 0.328948 2.8618
head 3.23999 0.201283 1.84975
rclavicle -5.28767e-014 -1.74931e-014
rhumerus -42.9917 19.3954 -95.3959
rradius 95.8324
rwrist 8.30601
rhand -24.1423 19.5517
rfingers 7.12502
rthumb 2.33995 -10.4152
lclavicle -5.28767e-014 -1.74931e-014
lhumerus -60.3071 -20.2927 91.4725
lradius 69.9454
lwrist 26.0897
lhand -10.6422 -10.1306
lfingers 7.12502
lthumb 15.3652 19.2785
rfemur 14.6567 -8.78322 22.9372
rtibia 43.9735
rfoot 13.1018 2.59273
rtoes -35.2281
lfemur -25.5164 7.25774 -22.4404
ltibia 27.926
lfoot -19.0738 -7.67207
ltoes -15.1432
221
root 17.772 17.4886 -6.53206 25.4559 112.64 -688.498
lowerback 2.35023 1.9332 5.17153
upperback 5.19313 2.71614 1.02634
thorax 4.24403 1.61291 -1.7803
lowerneck -10.8763 -0.258294 -4.87195
upperneck 4.2287 0.145818 2.90694
head 3.32058 0.112401 1.84662
rclavicle -4.9895e-014 -4.69132e-014
rhumerus -42.9972 18.9194 -95.1497
rradius 95.0393
rwrist 8.18685
rhand -24.4501 19.7342
rfingers 7.12502
rthumb 2.04269 -10.2358
lclavicle -4.9895e-014 -4.69132e-014
lhumerus -60.1061 -20.1359 91.3035
lradius 70.2984
lwrist 25.8164
lhand -10.6452 -9.9599
lfingers 7.12502
lthumb 15.3623 19.4494
rfemur 13.9971 -9.07105 22.4788
rtibia 46.5226
rfoot 13.3726 3.2702
rtoes -35.4409
lfemur -24.7821 7.13565 -22.7829
ltibia 27.6913
lfoot -18.9661 -7.60228
ltoes -16.3895
